<svg xmlns="http://www.w3.org/2000/svg" viewBox="0 0 1200 800">
  <defs>
    <linearGradient id="grad" x1="0%" y1="0%" x2="100%" y2="100%">
      <stop offset="0%" style="stop-color:#1a1a1a;stop-opacity:1" />
      <stop offset="100%" style="stop-color:#0a0a0a;stop-opacity:1" />
    </linearGradient>
  </defs>
  
  <rect width="1200" height="800" fill="url(#grad)"/>
  
  <!-- Esteira 1 -->
  <rect x="80" y="280" width="260" height="300" fill="#222222" stroke="#ffd400" stroke-width="3"/>
  <rect x="100" y="320" width="220" height="200" fill="#333333"/>
  <text x="210" y="480" font-size="14" text-anchor="middle" fill="#ffd400">SMART RUN</text>
  
  <!-- Esteira 2 -->
  <rect x="420" y="280" width="260" height="300" fill="#222222" stroke="#ffd400" stroke-width="3"/>
  <rect x="440" y="320" width="220" height="200" fill="#333333"/>
  <text x="550" y="480" font-size="14" text-anchor="middle" fill="#ffd400">SMART RUN</text>
  
  <!-- Esteira 3 -->
  <rect x="760" y="280" width="260" height="300" fill="#222222" stroke="#ffd400" stroke-width="3"/>
  <rect x="780" y="320" width="220" height="200" fill="#333333"/>
  <text x="890" y="480" font-size="14" text-anchor="middle" fill="#ffd400">SMART RUN</text>
  
  <!-- LED Lights -->
  <circle cx="100" cy="250" r="8" fill="#ffd400"/>
  <circle cx="180" cy="250" r="8" fill="#ffd400"/>
  <circle cx="260" cy="250" r="8" fill="#ffd400"/>
  
  <circle cx="440" cy="250" r="8" fill="#ffd400"/>
  <circle cx="520" cy="250" r="8" fill="#ffd400"/>
  <circle cx="600" cy="250" r="8" fill="#ffd400"/>
  
  <circle cx="780" cy="250" r="8" fill="#ffd400"/>
  <circle cx="860" cy="250" r="8" fill="#ffd400"/>
  <circle cx="940" cy="250" r="8" fill="#ffd400"/>
  
  <!-- Texto -->
  <text x="600" y="100" font-size="48" font-weight="bold" text-anchor="middle" fill="#ffd400">
    Esteiras Profissionais
  </text>
  <text x="600" y="170" font-size="24" text-anchor="middle" fill="#cccccc">
    Alinhadas com Iluminação em LED
  </text>
</svg>
